<svg xmlns="http://www.w3.org/2000/svg"
  xmlns:xlink="http://www.w3.org/1999/xlink" viewBox="0 0 453.65 257.67">
  <defs>
    <style>.cls-1{fill:#bbb;}.cls-2{fill:#888;}.cls-3{fill:#111;}.screen{fill:#333;}.cls-5{fill:url(#linear-gradient);}.cls-6{fill:url(#slot);}.cls-7{fill:url(#linear-gradient-3);}</style>
    <linearGradient id="linear-gradient" y1="247.59" x2="453.65" y2="247.59" gradientUnits="userSpaceOnUse">
      <stop offset="0" stop-color="#999"/>
      <stop offset="0.01" stop-color="#d0d1d3"/>
      <stop offset="0.07" stop-color="#d1d2d5"/>
      <stop offset="0.51" stop-color="#f3f3f4"/>
      <stop offset="0.93" stop-color="#d1d2d5"/>
      <stop offset="0.99" stop-color="#e6e6e6"/>
      <stop offset="1" stop-color="#d0d1d3"/>
      <stop offset="1" stop-color="#999"/>
    </linearGradient>
    <linearGradient id="slot" x1="193.05" y1="246.07" x2="260.6" y2="246.07" gradientUnits="userSpaceOnUse">
      <stop offset="0" stop-color="#bbb"/>
      <stop offset="0.1" stop-color="#d8d9db"/>
      <stop offset="0.5" stop-color="#d7d8db"/>
      <stop offset="0.9" stop-color="#d8d9db"/>
      <stop offset="1" stop-color="#bbb"/>
    </linearGradient>
    <linearGradient id="linear-gradient-3" x1="226.83" y1="257.67" x2="226.83" y2="251.8" gradientUnits="userSpaceOnUse">
      <stop offset="0" stop-color="#2b2c2e"/>
      <stop offset="0.12" stop-color="#3c3d40"/>
      <stop offset="0.34" stop-color="#5f6064"/>
      <stop offset="0.73" stop-color="#88898d"/>
      <stop offset="1" stop-color="#909195"/>
    </linearGradient>
  </defs>

  <g id="Layer_1" data-name="Layer 1">
    <rect class="cls-1" x="43.63" width="366.38" height="247.85" rx="10.78"/>
    <rect class="cls-2" x="45.25" y="1.62" width="363.15" height="244.61" rx="9.7"/>
    <rect class="cls-3" x="46.33" y="2.69" width="360.99" height="242.46" rx="8.62"/>
    <rect class="screen" x="58.18" y="14.55" width="337.29" height="218.75"/>
    <rect class="cls-5" y="243.38" width="453.65" height="8.42"/>
    <path class="cls-6" d="M256.28,248.77h-59.2a5,5,0,0,1-3-2.1,5.34,5.34,0,0,1-1-3.29H260.6a7.4,7.4,0,0,1-1.45,3.61A5.61,5.61,0,0,1,256.28,248.77Z"/>
    <path class="cls-7" d="M0,251.8s2.61,2.14,10,4.26c6.14,1.76,16.65,1.61,16.65,1.61H427s10.51.15,16.65-1.61c7.36-2.12,10-4.26,10-4.26Z"/>
  </g>

</svg>